name C:\Users\u0101727\Documents\MyRepositories\paper-ad\trackingsimulations_3d\Results\TrackSim\IK_c9.mot
datacolumns 32
datarows 10
range 3.45000000 3.59400000
endheader
time	pelvis_tilt	pelvis_list	pelvis_rotation	pelvis_tx	pelvis_ty	pelvis_tz	hip_flexion_l	hip_adduction_l	hip_rotation_l	hip_flexion_r	hip_adduction_r	hip_rotation_r	knee_angle_l	knee_angle_r	ankle_angle_l	ankle_angle_r	subtalar_angle_l	subtalar_angle_r	lumbar_extension	lumbar_bending	lumbar_rotation	arm_flex_l	arm_add_l	arm_rot_l	arm_flex_r	arm_add_r	arm_rot_r	elbow_flex_l	elbow_flex_r	pro_sup_l	pro_sup_r	
          3.45000000	         -2.16815652	          4.39016447	          4.40714725	         -0.50764147	          0.94268011	         -0.23005708	         15.05014851	          9.17786425	          3.45775612	         13.64097713	         -1.82213358	         -2.18397397	        -22.14062966	        -65.10687930	          5.22132627	        -12.89528557	          5.74607472	        -13.56883850	         -4.51873349	         -4.06578825	         -3.34232907	         -1.83223604	        -15.69845407	         17.87012549	         -4.80596612	        -16.91108094	         12.14196745	         21.28755096	         23.54792400	         86.51662706	         86.51662706	
          3.46600000	         -2.19393386	          4.17461905	          4.34908064	         -0.48933469	          0.94557058	         -0.23061887	         13.65007900	          8.93074643	          3.80645388	         16.82171368	         -1.90207245	         -2.03719235	        -21.99307461	        -66.36836106	          6.86718804	        -10.74812016	          5.94381519	        -12.84500112	         -4.69881232	         -3.91685712	         -3.82973708	         -1.63253526	        -15.90430514	         17.29433741	         -5.00543590	        -16.82779670	         12.39485719	         22.62767593	         23.05268217	         86.51662706	         86.51662706	
          3.48200000	         -2.17366127	          3.88977710	          4.28490303	         -0.47094136	          0.94824344	         -0.23111796	         12.14049662	          8.59224612	          4.13010247	         19.73332716	         -1.90309843	         -1.95313164	        -21.65137416	        -66.65255969	          8.03671037	         -8.84384649	          6.01364258	        -11.87121421	         -4.88820831	         -3.66372599	         -4.29227790	         -1.42417215	        -16.08774347	         16.78616593	         -5.27585105	        -16.76475828	         12.44463827	         23.94076810	         22.62665577	         86.51662706	         86.51662706	
          3.49800000	         -2.11576903	          3.52209944	          4.32613998	         -0.45243920	          0.95057459	         -0.23172771	         10.56721056	          8.19485135	          4.56623591	         22.30875466	         -1.83424238	         -2.03872267	        -21.19705031	        -65.94668605	          8.75973294	         -7.16838035	          5.85499254	        -10.92316849	         -5.08602267	         -3.28466101	         -4.82569389	         -1.20024779	        -16.25342548	         16.38323318	         -5.63851123	        -16.72178837	         12.20120730	         25.21692118	         22.32522029	         86.51662706	         86.51662706	
          3.51400000	         -2.03729723	          3.10794737	          4.43995876	         -0.43380317	          0.95244151	         -0.23237869	          8.95359400	          7.75397941	          5.06037993	         24.54173906	         -1.73869791	         -2.26088859	        -20.66930085	        -64.30785180	          9.21644653	         -5.57081870	          5.56887645	        -10.19633026	         -5.27712870	         -2.83112842	         -5.38983693	         -0.96665971	        -16.42079283	         16.07859217	         -6.07186751	        -16.68337220	         11.70232764	         26.46086278	         22.11506398	         86.51662706	         86.51662706	
          3.53000000	         -1.94048845	          2.68865803	          4.58102266	         -0.41501177	          0.95376429	         -0.23296896	          7.29908185	          7.28044828	          5.52114680	         26.42219720	         -1.64508022	         -2.56903429	        -20.09371744	        -61.80027872	          9.59078690	         -3.93777865	          5.30179594	         -9.92297686	         -5.46469405	         -2.36203419	         -5.94129318	         -0.72918134	        -16.60648825	         15.84747045	         -6.53209443	        -16.63246410	         11.04619769	         27.66910454	         21.92961886	         86.51662706	         86.51662706	
          3.54600000	         -1.82787862	          2.30329156	          4.72342276	         -0.39603233	          0.95449548	         -0.23344696	          5.59190087	          6.79460734	          5.88533343	         27.93786149	         -1.58293791	         -2.92002637	        -19.46539829	        -58.49382708	          9.97620488	         -2.34407763	          5.16002077	        -10.06170540	         -5.65059093	         -1.92840112	         -6.46153797	         -0.49472052	        -16.81568997	         15.66995206	         -6.98117846	        -16.55797796	         10.33143477	         28.82003747	         21.71231764	         86.51662706	         86.51662706	
          3.56200000	         -1.69830045	          1.98087121	          4.86655081	         -0.37683674	          0.95463023	         -0.23382186	          3.81764656	          6.32325950	          6.14578438	         29.08129107	         -1.58289291	         -3.29568727	        -18.77286717	        -54.49377226	         10.38980197	         -1.18421587	          5.17695345	        -10.27696667	         -5.84123250	         -1.56330997	         -6.95694378	         -0.26476778	        -17.04258514	         15.53964825	         -7.39290750	        -16.45673485	          9.63303239	         29.87940079	         21.43167272	         86.51662706	         86.51662706	
          3.57800000	         -1.55806449	          1.73470871	          5.02074639	         -0.35741777	          0.95418592	         -0.23412839	          1.98397204	          5.88924454	          6.33602980	         29.87087999	         -1.66529046	         -3.72396394	        -18.02292268	        -49.91132040	         10.81297383	         -0.85866993	          5.32750675	        -10.38092086	         -6.03456404	         -1.27953372	         -7.43773428	         -0.03365908	        -17.27325770	         15.46083419	         -7.75245393	        -16.33168037	          9.00462181	         30.80871589	         21.07374533	         86.51662706	         86.51662706	
          3.59400000	         -1.41870807	          1.57339714	          5.18220117	         -0.33778078	          0.95319157	         -0.23438053	          0.11631138	          5.51583250	          6.50292836	         30.35039038	         -1.83124684	         -4.21553344	        -17.24103034	        -44.86979536	         11.21144303	         -1.22199120	          5.54735752	        -10.06699546	         -6.22210880	         -1.08549518	         -7.89224973	          0.20952940	        -17.49042269	         15.44119160	         -8.05207430	        -16.18808255	          8.48687886	         31.57065210	         20.63014280	         86.51662706	         86.51662706	
